<svg width="220" height="220" viewBox="0 0 220 220" xmlns="http://www.w3.org/2000/svg">
  <defs>
    <linearGradient id="aiGrad" x1="0%" y1="0%" x2="100%" y2="100%">
      <stop offset="0%" stop-color="#0EA5E9"/>
      <stop offset="100%" stop-color="#8B5CF6"/>
    </linearGradient>
    <filter id="glow">
      <feGaussianBlur stdDeviation="4" result="coloredBlur"/>
      <feMerge>
        <feMergeNode in="coloredBlur"/>
        <feMergeNode in="SourceGraphic"/>
      </feMerge>
    </filter>
  </defs>
  <circle cx="110" cy="110" r="90" fill="none" stroke="url(#aiGrad)" stroke-width="4" opacity="0.3"/>
  <circle cx="110" cy="110" r="28" fill="url(#aiGrad)" filter="url(#glow)"/>
  <g stroke="url(#aiGrad)" stroke-width="3" stroke-linecap="round">
    <line x1="110" y1="82" x2="110" y2="50"/>
    <line x1="138" y1="110" x2="170" y2="110"/>
    <line x1="110" y1="138" x2="110" y2="170"/>
    <line x1="82" y1="110" x2="50" y2="110"/>
    <line x1="130" y1="90" x2="155" y2="65"/>
    <line x1="130" y1="130" x2="155" y2="155"/>
    <line x1="90" y1="130" x2="65" y2="155"/>
    <line x1="90" y1="90" x2="65" y2="65"/>
  </g>
  <g fill="url(#aiGrad)">
    <circle cx="110" cy="45" r="6"/>
    <circle cx="175" cy="110" r="6"/>
    <circle cx="110" cy="175" r="6"/>
    <circle cx="45" cy="110" r="6"/>
    <circle cx="160" cy="60" r="5"/>
    <circle cx="160" cy="160" r="5"/>
    <circle cx="60" cy="160" r="5"/>
    <circle cx="60" cy="60" r="5"/>
  </g>
</svg>
